<?xml version="1.0" encoding="UTF-8" standalone="no"?>
<!-- Created with Inkscape (http://www.inkscape.org/) -->

<svg
   version="1.1"
   id="svg62"
   width="192"
   height="192"
   viewBox="0 0 192 192"
   sodipodi:docname="ic_launcher.png"
   inkscape:export-filename="ic_launcher.svg"
   inkscape:export-xdpi="96"
   inkscape:export-ydpi="96"
   xmlns:inkscape="http://www.inkscape.org/namespaces/inkscape"
   xmlns:sodipodi="http://sodipodi.sourceforge.net/DTD/sodipodi-0.dtd"
   xmlns="http://www.w3.org/2000/svg"
   xmlns:svg="http://www.w3.org/2000/svg">
  <defs
     id="defs66" />
  <sodipodi:namedview
     id="namedview64"
     pagecolor="#ffffff"
     bordercolor="#000000"
     borderopacity="0.25"
     inkscape:showpageshadow="2"
     inkscape:pageopacity="0.0"
     inkscape:pagecheckerboard="0"
     inkscape:deskcolor="#d1d1d1"
     showgrid="false" />
  <g
     inkscape:groupmode="layer"
     inkscape:label="Image"
     id="g68">
    <rect
       style="fill:#ffffff;fill-opacity:1;stroke:#000000;stroke-width:0;stroke-dasharray:none"
       id="rect1936"
       width="178.49072"
       height="173.56004"
       x="6.7546387"
       y="9.2199783"
       ry="23.17421" />
    <g
       id="g1882"
       transform="matrix(1.535322,0,0,1.5785987,-54.646221,-51.096401)">
      <path
         style="fill:#fdb8b9;fill-opacity:1;stroke:#000000;stroke-width:0;stroke-dasharray:none"
         d="m 90.724565,90.231496 -27.118756,4.437615 -5.423751,18.243529 8.875229,13.80591 17.750458,-2.46534 12.819776,-13.80591 z"
         id="path1735" />
      <path
         style="fill:#b1d1fb;fill-opacity:1;stroke:#000000;stroke-width:0;stroke-dasharray:none"
         d="m 98.613657,87.273087 3.451483,-22.188073 23.1742,-7.889093 10.84751,11.340571 2.95841,21.695004 z"
         id="path1737" />
      <path
         style="fill:#000000"
         d="m 60.182807,131.93116 c -11.37894,-5.6324 -14.575,-23.75912 -6.01926,-34.138712 5.85746,-7.106123 17.739066,-11.632284 30.647926,-11.674978 l 5.25,-0.01736 v -6.532118 c 0,-11.768335 -3.93814,-16.494575 -13.70034,-16.442065 -4.06044,0.02184 -12.765766,2.434635 -19.549656,5.418445 -1.5486,0.681132 -1.75,0.132696 -1.75,-4.765424 v -5.535141 l 5.72608,-2.142399 c 3.14934,-1.17832 9.11184,-2.630743 13.249996,-3.227607 6.35047,-0.915956 8.42001,-0.822817 13.26947,0.59719 3.16004,0.925318 7.2117,2.969704 9.00368,4.543079 l 3.25813,2.860681 3.496317,-2.926914 c 4.74204,-3.969758 12.88529,-6.252772 19.27809,-5.404738 15.16248,2.011374 22.11833,12.633946 24.1019,36.80701 l 0.47182,5.75 h -21.92774 -21.92775 v 2.894659 c 0,1.59207 0.8855,5.761592 1.96778,9.265592 2.13721,6.91948 7.05104,12.75643 12.53222,14.88654 4.74451,1.84382 15.26296,1.39373 22.21845,-0.95075 3.42015,-1.15282 6.48117,-2.09604 6.80226,-2.09604 0.3211,0 0.44779,2.3625 0.28155,5.25 l -0.30226,5.25 -5.5,1.8274 c -3.025,1.00507 -9.37231,2.07996 -14.10514,2.38864 -12.25439,0.79924 -18.49387,-1.29425 -26.21474,-8.79563 l -5.819867,-5.65444 -5.14732,5.01365 c -9.61217,9.36254 -20.380876,12.11059 -29.591596,7.55143 z m 20.878666,-10.91508 c 8.46268,-3.83661 9,-4.83494 9,-16.72179 V 93.837091 l -7.25,0.473421 c -12.618536,0.823983 -20.749996,6.865168 -20.749996,15.415988 0,11.24148 8.26874,16.15467 18.999996,11.28958 z M 132.81721,79.645965 c -0.87111,-10.852236 -5.99181,-16.919529 -14.1754,-16.795814 -8.35057,0.12624 -13.60462,6.371423 -15.14332,17.999956 l -0.69468,5.249999 h 15.26574 15.26574 z"
         id="path373" />
    </g>
  </g>
</svg>
